<svg width="255" height="318" viewBox="0 0 255 318" fill="none" xmlns="http://www.w3.org/2000/svg">
<path d="M58.882 0.200463C85.762 -2.08954 107.062 16.0405 132.562 13.8905C147.742 12.6105 162.522 3.70046 177.872 1.20046C217.192 -5.20954 248.872 19.3205 254.072 58.4205C260.532 107.09 230.692 137.17 227.092 182.42C224.082 220.25 227.782 264.11 208.252 298.58C195.552 321 170.122 327.41 160.042 299.45C152.472 278.46 152.612 218.35 134.032 206.46C128.842 203.14 124.572 203.35 119.572 206.91C103.002 218.72 101.272 275.73 95.582 295.92C88.182 322.17 64.462 325.39 49.262 303.23C19.272 259.52 36.452 193.1 19.092 144.4C13.462 128.61 6.36196 115.76 2.75196 98.7405C-6.61804 54.4305 6.94196 4.64046 58.872 0.22046L58.882 0.200463ZM56.842 15.1605C22.802 19.4605 13.092 51.6105 15.042 81.4505C16.952 110.74 34.732 134.53 39.802 162.69C46.192 198.16 39.072 269.71 63.122 297.37C78.102 314.6 81.772 291.2 83.812 280.1C88.392 255.16 91.102 188.24 127.552 188.86C164.002 189.48 166.412 258.53 171.412 284.07C173.302 293.7 177.862 312.23 190.542 298.83C214.732 273.27 208.992 199.41 214.392 165.68C220.912 124.98 260.792 73.9205 228.522 32.9705C198.782 -4.75954 163.952 27.4505 130.652 28.9305C103.782 30.1205 83.212 11.8105 56.862 15.1405L56.842 15.1605Z" fill="#00287D"/>
<path d="M74.892 41.1905C89.552 40.1105 97.892 49.8205 109.822 51.6605C120.492 53.3105 134.442 48.5705 135.152 65.3905C135.952 84.3005 122.212 86.2205 110.752 94.0705C102.192 99.9305 103.362 108.511 97.612 115.931C83.792 133.761 55.872 126.101 53.192 103.301C52.702 99.1005 53.492 94.8505 52.842 90.6505C51.992 85.1405 48.552 79.9405 48.052 73.4505C46.702 56.0405 57.282 42.5005 74.892 41.2005V41.1905Z" fill="#00287D"/>
</svg>
