<svg width="259" height="331" viewBox="0 0 259 331" fill="none" xmlns="http://www.w3.org/2000/svg">
<path d="M233.131 148.704C237.611 182.054 234.271 215.994 227.781 248.854C223.731 269.374 211.111 323.254 187.911 328.984C169.771 333.464 161.571 322.504 157.591 306.684C152.651 287.034 151.171 230.544 137.031 218.244C131.391 213.334 123.171 215.134 118.661 220.734C102.541 240.764 108.061 293.474 96.6407 316.714C87.5807 335.154 67.6507 333.194 55.5907 318.694C32.6707 291.124 23.6007 216.614 23.1507 181.144C21.1707 170.464 24.2007 159.444 25.0907 148.704C10.9407 148.764 8.90072 132.784 6.18072 122.114C-4.45928 80.4339 -6.16928 24.2539 41.1307 5.20388C71.6307 -7.07612 86.9207 5.33387 114.101 12.1939C149.441 21.1139 174.961 -10.6361 215.101 4.19387C261.951 21.5139 262.701 73.2139 253.801 114.874C251.231 126.924 248.661 148.794 233.151 148.714L233.131 148.704ZM58.8707 16.9539C12.5407 22.5039 12.0907 74.7339 19.4007 109.864C20.0507 112.994 24.7907 132.374 26.0507 133.214L232.621 132.704C249.361 87.1539 252.131 10.8939 183.611 16.6939C169.191 17.9139 155.431 26.6538 141.151 29.2338C109.311 34.9838 89.4807 13.2939 58.8707 16.9539ZM216.991 149.774L41.2307 149.804C35.0107 178.394 39.3607 210.214 44.4107 238.854C47.9107 258.694 54.3507 288.364 64.9007 305.364C70.7007 314.714 79.5907 319.524 84.1407 306.224C93.5907 278.614 85.8707 194.174 133.481 199.784C167.071 203.744 166.701 272.214 171.251 297.014C172.731 305.104 173.341 316.284 184.351 313.424C192.031 311.424 199.841 290.664 202.361 283.444C207.471 268.854 211.061 252.104 213.771 236.854C218.791 208.584 223.081 178.064 216.991 149.774Z" fill="#00287D"/>
</svg>
