<svg width="80" height="100" viewBox="0 0 80 100" fill="none" xmlns="http://www.w3.org/2000/svg">
<rect x="0.5" y="0.5" width="79" height="99" rx="23.5" fill="#FAFAFA"/>
<rect x="0.5" y="0.5" width="79" height="99" rx="23.5" stroke="white"/>
<path d="M46.2485 78.7726C44.4068 77.0025 42.9055 68.1782 40.3307 67.6174C36.9965 66.8901 36.4204 79.0618 31.585 79.8855C21.2769 81.6293 22.5775 62.973 21.3817 56.8565C19.2782 46.1045 12.7755 35.7292 21.1983 24.7142C29.0276 14.4879 34.893 24.6792 40.3656 24.5652C45.8906 24.4513 50.857 14.0059 59.1052 25.0998C67.2836 36.0972 60.3359 47.7256 58.4593 58.6179C57.4556 64.4452 58.983 79.7189 49.9405 79.8942C48.8669 79.9117 47.0078 79.5087 46.231 78.7638L46.2485 78.7726ZM28.3643 22.1905C22.3592 23.1895 19.0425 32.9426 18.9465 38.2967C18.8243 45.4297 22.9527 52.5627 23.9652 59.5292C24.6722 64.3839 23.4415 75.0395 28.8355 77.4844C34.7009 80.1483 34.1424 65.2952 40.3482 65.2777C45.6811 65.2602 46.5801 85.1169 53.4056 75.4514C56.5391 71.0174 55.7099 62.3684 56.7311 56.8829C58.5379 47.1736 65.7998 33.3194 56.0765 24.6616C48.5353 17.9405 47.1737 27.3781 40.3569 27.3781C34.4391 27.3781 33.4179 21.3492 28.3643 22.1905Z" fill="#00287D"/>
</svg>
