<svg width="80" height="100" viewBox="0 0 80 100" fill="none" xmlns="http://www.w3.org/2000/svg">
<rect x="0.5" y="0.5" width="79" height="99" rx="23.5" fill="#FAFAFA"/>
<rect x="0.5" y="0.5" width="79" height="99" rx="23.5" stroke="white"/>
<path d="M34.9047 18.3824C49.2166 16.6844 62.6736 20.2484 60.8301 37.0601C60.18 43.0296 50.2675 74.0177 46.6962 77.8559C41.1745 83.7811 34.0141 80.5797 30.4696 74.4776C27.8245 69.9231 19.4617 41.5793 19.0877 36.2643C18.2594 24.3076 23.2824 19.7708 34.9047 18.3912V18.3824ZM23.8346 24.6348C22.9974 25.4661 21.991 27.1995 21.7951 28.358C20.3345 37.1575 27.0586 60.2128 30.6299 69.0122C34.2012 77.8117 41.2101 83.905 47.1237 72.9654C49.9113 67.8095 57.6685 43.7194 58.2563 38.0241C58.9955 30.8519 59.414 26.0498 52.3605 22.6627C45.2357 19.2402 29.6413 18.8246 23.8346 24.626V24.6348Z" fill="#00287D"/>
</svg>
