<svg width="80" height="100" viewBox="0 0 80 100" fill="none" xmlns="http://www.w3.org/2000/svg">
<rect x="0.5" y="0.5" width="79" height="99" rx="23.5" fill="#FAFAFA"/>
<rect x="0.5" y="0.5" width="79" height="99" rx="23.5" stroke="white"/>
<path d="M54.1922 78.0881C45.5379 85.836 43.0439 67.5662 40.7878 67.0619C37.0952 66.2271 35.9143 85.262 26.9075 78.3837C21.8313 74.5054 22.7214 62.2271 21.6374 56.3922C21.0558 53.2444 19.1434 49.853 18.5441 46.4008C17.2486 39.0007 17.9625 27.1398 24.0433 21.8267C32.4156 14.5136 35.976 24.705 40.6644 24.2615C44.8065 23.8702 48.3228 14.4179 56.6686 21.8267C67.8962 31.792 61.2072 45.4182 59.0657 56.3922C57.9377 62.1836 58.8983 73.8706 54.1834 78.0881H54.1922ZM34.4778 24.1484C31.7458 22.3832 32.1071 18.8353 26.696 22.7136C15.0102 31.105 22.1486 47.6356 24.2637 58.1488C24.9775 61.6879 24.3518 79.7664 31.8427 77.4011C34.7951 76.4707 35.0771 64.7401 40.7525 65.2706C46.851 65.8445 45.1149 79.1316 51.2046 77.3663C56.5628 75.8185 55.6375 62.314 56.4483 58.1488C58.5634 47.2791 64.6707 36.7138 57.1092 25.7484C48.7282 13.6005 45.7847 31.4529 34.4866 24.1484H34.4778Z" fill="#00287D"/>
</svg>
