<svg width="80" height="100" viewBox="0 0 80 100" fill="none" xmlns="http://www.w3.org/2000/svg">
<rect x="0.5" y="0.5" width="79" height="99" rx="23.5" fill="#FAFAFA"/>
<rect x="0.5" y="0.5" width="79" height="99" rx="23.5" stroke="white"/>
<path d="M27.6123 19.3612C32.7956 18.3078 36.4087 24.0882 39.888 24.1056C44.7768 24.1317 49.6478 12.3533 58.5691 24.4886C67.4903 36.624 60.5317 47.0444 58.4263 59.0579C57.4539 64.6033 58.5869 77.7311 51.0574 79.7943C44.1523 81.6833 44.0988 70.0181 39.888 67.1017C35.695 69.9832 36.1232 79.7769 30.0657 79.7507C20.9928 79.7159 22.2328 63.6544 21.3674 58.17C20.056 49.8563 16.202 45.0073 17.1477 35.3182C17.6473 30.2168 21.9919 20.4929 27.6034 19.3524L27.6123 19.3612ZM36.9975 66.4488C43.9471 59.9024 45.5708 76.5907 48.9876 77.4264C56.6332 79.2893 55.741 61.3562 56.4993 57.1776C58.462 46.348 64.9388 37.1899 57.1506 25.8815C49.9511 15.435 46.2667 26.221 39.8969 26.221C33.3576 26.221 31.618 16.9149 24.2847 23.9924C14.4446 33.4901 21.1623 46.2348 23.1874 56.4115C24.026 60.6423 23.5086 76.9128 29.3877 77.4003C34.446 77.8181 34.4103 68.8951 36.9975 66.4488Z" fill="#00287D"/>
</svg>
