<svg width="80" height="100" viewBox="0 0 80 100" fill="none" xmlns="http://www.w3.org/2000/svg">
<rect x="0.5" y="0.5" width="79" height="99" rx="23.5" fill="#FAFAFA"/>
<rect x="0.5" y="0.5" width="79" height="99" rx="23.5" stroke="white"/>
<path d="M25.0099 22.6924C31.9149 15.5406 55.8757 16.0894 58.6377 27.6402C60.6784 36.1551 53.5711 59.2215 50.4485 68.2055C47.8184 75.7821 42.7606 87.2179 34.3426 76.862C30.9561 72.693 22.7493 42.2713 22.1775 36.0047C21.7817 31.6675 21.7905 26.0204 25.0011 22.6924H25.0099ZM37.7116 19.9839C32.7681 20.4707 25.6608 22.418 24.7636 28.1979C23.4265 36.757 30.5603 64.0896 34.2107 72.5779C37.263 79.6678 43.1125 80.2785 46.5078 73.0913C49.3841 66.984 57.116 38.8725 57.072 32.5792C57.0017 22.0108 46.8069 19.0988 37.7116 19.9927V19.9839Z" fill="#00287D"/>
</svg>
