<svg width="80" height="100" viewBox="0 0 80 100" fill="none" xmlns="http://www.w3.org/2000/svg">
<rect x="0.5" y="0.5" width="79" height="99" rx="23.5" fill="#FAFAFA"/>
<rect x="0.5" y="0.5" width="79" height="99" rx="23.5" stroke="white"/>
<path d="M57.5518 23.0602C67.55 32.2375 61.1762 45.5346 58.8424 55.72C57.5783 61.2422 58.6215 84.3653 47.262 79.2726C43.7348 77.6861 42.2407 65.0113 38.4572 67.4919C36.972 68.4649 35.9201 78.8869 30.8547 79.7372C21.0776 81.3851 22.4036 64.985 21.3693 59.3752C19.398 48.5937 11.3624 29.906 23.818 21.8769C31.6769 16.8105 34.7444 24.4451 39.7302 24.4451C45.0961 24.4451 49.251 15.4431 57.543 23.0602H57.5518ZM28.4591 22.0347C20.1671 23.2618 18.4167 35.7613 19.0709 42.3704C19.5925 47.6033 22.3506 52.1087 23.1727 56.7105C23.9949 61.3211 22.8986 76.0469 28.6624 77.6247C34.7532 79.2989 33.7543 65.1252 39.739 65.1252C45.7238 65.1252 44.6364 79.5794 50.8156 77.6247C56.3937 75.8628 55.3595 61.5928 56.3053 56.7017C57.0744 52.7135 59.9032 48.1379 60.4424 44.1497C61.353 37.3302 61.1763 28.5386 55.2269 24.0507C48.0752 18.66 48.031 24.6117 43.4961 26.4699C35.0007 29.9498 33.0736 21.3422 28.4591 22.0259V22.0347Z" fill="#00287D"/>
</svg>
