<svg width="80" height="100" viewBox="0 0 80 100" fill="none" xmlns="http://www.w3.org/2000/svg">
<rect x="0.5" y="0.5" width="79" height="99" rx="23.5" fill="#FAFAFA"/>
<rect x="0.5" y="0.5" width="79" height="99" rx="23.5" stroke="white"/>
<path d="M37.6058 68.1221C35.1915 70.815 33.9319 84.6542 25.8056 78.3882C20.8459 74.5624 21.5719 62.1873 20.566 56.3657C19.9362 52.7403 17.8105 48.9494 17.3644 45.6116C16.3672 38.1691 17.1545 27.1447 23.0502 21.7938C31.124 14.4733 34.4567 24.1294 39.6002 23.9725C44.1488 23.8331 49.0998 13.166 57.0424 23.5106C66.9444 36.4086 59.2292 45.0451 57.6022 57.0891C56.9112 62.2134 57.7772 80.7326 48.4787 79.9221C42.4956 79.3992 41.9532 63.2941 37.6145 68.1221H37.6058ZM28.4211 20.9572C23.3389 21.6805 19.455 31.6852 19.0439 36.1124C18.2217 45.0364 22.0443 50.2915 23.1727 58.1174C23.82 62.5969 22.744 74.7541 27.7825 77.0636C34.413 80.1051 33.1971 64.6362 39.5302 65.2549C45.6446 65.8563 44.1838 78.946 49.887 77.3512C55.3804 75.8174 54.9693 59.7471 55.9927 54.6402C57.9608 44.8969 63.1393 34.6483 55.3279 25.1926C47.7002 15.9548 45.8895 26.465 38.7079 26.1425C34.3693 25.9508 31.089 20.5737 28.3948 20.9572H28.4211Z" fill="#00287D"/>
</svg>
