<svg width="80" height="100" viewBox="0 0 80 100" fill="none" xmlns="http://www.w3.org/2000/svg">
<rect x="0.5" y="0.5" width="79" height="99" rx="23.5" fill="#FAFAFA"/>
<rect x="0.5" y="0.5" width="79" height="99" rx="23.5" stroke="white"/>
<path d="M33.6934 19.5125C41.221 18.4338 54.3811 18.2145 55.8795 27.6688C57.0166 34.8252 49.824 70.3182 46.1131 76.5976C42.0848 83.4033 36.0381 81.851 32.856 75.1418C29.9384 68.9939 24.9936 47.6999 24.3148 40.6662C23.9887 37.2984 23.6273 26.5111 24.8525 23.88C26.0072 21.3893 31.1108 19.8896 33.6934 19.5125ZM35.474 21.2928C25.9455 22.4505 25.5312 25.7744 25.9807 34.6323C26.2804 40.4732 33.1998 73.7824 36.135 77.1414C41.0359 82.7455 44.4471 74.9751 45.8133 71.0461C48.6692 62.7846 56.1527 30.9839 52.2479 24.2922C50.2558 20.8718 39.3083 20.8368 35.474 21.3016V21.2928Z" fill="#00287D"/>
</svg>
