<svg width="80" height="100" viewBox="0 0 80 100" fill="none" xmlns="http://www.w3.org/2000/svg">
<rect x="0.5" y="0.5" width="79" height="99" rx="23.5" fill="#FAFAFA"/>
<rect x="0.5" y="0.5" width="79" height="99" rx="23.5" stroke="white"/>
<path d="M35.4834 18.2407C43.1509 17.2606 58.7196 18.9736 59.8952 29.004C60.9066 37.6923 54.3455 60.6758 51.0347 69.4436C47.7585 78.1319 40.1341 86.5907 32.6999 76.2071C29.3545 71.5274 20.6151 42.2573 20.1224 36.0765C19.1542 23.9976 23.8999 19.7153 35.4834 18.2407ZM37.2122 19.9978C20.3989 21.6489 20.4681 30.1342 24.0123 44.4647C25.3263 49.7801 32.8123 74.8826 36.2009 77.0459C39.5895 79.2091 43.7215 77.9995 46.0727 74.9621C49.2712 70.821 58.5552 37.1714 58.1835 31.697C57.4747 21.2075 45.6319 19.1767 37.2209 20.0066L37.2122 19.9978Z" fill="#00287D"/>
</svg>
