<svg width="80" height="100" viewBox="0 0 80 100" fill="none" xmlns="http://www.w3.org/2000/svg">
<rect x="0.5" y="0.5" width="79" height="99" rx="23.5" fill="#FAFAFA"/>
<rect x="0.5" y="0.5" width="79" height="99" rx="23.5" stroke="white"/>
<path d="M15.0447 78.3381C11.599 74.5817 11.9002 65.5104 12.1217 60.6595C12.5203 52.0523 15.4788 30.0746 20.5809 23.49C27.623 14.4099 54.8167 14.8828 61.7258 24.7509C66.9697 32.2373 69.7157 61.7978 68.8388 71.2019C68.3161 76.8408 66.5534 79.2399 61.0261 80.9911C52.8148 83.5917 20.7404 84.5461 15.0447 78.3468V78.3381ZM65.0387 76.6394C69.4942 71.8673 64.7464 42.7271 63.0545 35.6872C60.3351 24.3919 58.041 20.1539 45.3122 19.0769C36.4543 18.3239 24.2658 19.2083 20.2709 28.4372C16.2849 37.6398 13.8135 60.3618 14.7347 70.3175C15.2574 75.9301 16.3114 77.5237 21.8211 79.0736C28.8011 81.0437 60.3351 81.6654 65.0387 76.6394Z" fill="#00287D"/>
</svg>
