<svg width="80" height="100" viewBox="0 0 80 100" fill="none" xmlns="http://www.w3.org/2000/svg">
<rect x="0.5" y="0.5" width="79" height="99" rx="23.5" fill="#FAFAFA"/>
<rect x="0.5" y="0.5" width="79" height="99" rx="23.5" stroke="white"/>
<path d="M38.6058 68.1221C36.1915 70.815 34.9319 84.6542 26.8056 78.3882C21.8459 74.5624 22.5719 62.1873 21.566 56.3657C20.9362 52.7403 18.8105 48.9494 18.3644 45.6116C17.3672 38.1691 18.1545 27.1447 24.0502 21.7938C32.124 14.4733 35.4567 24.1294 40.6002 23.9725C45.1488 23.8331 50.0998 13.166 58.0424 23.5106C67.9444 36.4086 60.2292 45.0451 58.6022 57.0891C57.9112 62.2134 58.7772 80.7326 49.4787 79.9221C43.4956 79.3992 42.9532 63.2941 38.6145 68.1221H38.6058ZM29.4211 20.9572C24.3389 21.6805 20.455 31.6852 20.0439 36.1124C19.2217 45.0364 23.0443 50.2915 24.1727 58.1174C24.82 62.5969 23.744 74.7541 28.7825 77.0636C35.413 80.1051 34.1971 64.6362 40.5302 65.2549C46.6446 65.8563 45.1838 78.946 50.887 77.3512C56.3804 75.8174 55.9693 59.7471 56.9927 54.6402C58.9608 44.8969 64.1393 34.6483 56.3279 25.1926C48.7002 15.9548 46.8895 26.465 39.7079 26.1425C35.3693 25.9508 32.089 20.5737 29.3948 20.9572H29.4211Z" fill="#00287D"/>
</svg>
