<svg width="80" height="100" viewBox="0 0 80 100" fill="none" xmlns="http://www.w3.org/2000/svg">
<rect x="0.5" y="0.5" width="79" height="99" rx="23.5" fill="#FAFAFA"/>
<rect x="0.5" y="0.5" width="79" height="99" rx="23.5" stroke="white"/>
<path d="M37.4062 17.2741C53.3498 14.8234 57.3729 29.2796 59.9937 41.816C61.5276 49.1237 63.5348 63.1729 62.8686 70.3125C62.2025 77.4521 57.557 80.2567 51.0007 81.4068C43.0508 82.8046 20.849 82.4596 18.535 72.1527C16.3438 62.3766 21.2522 33.6147 26.5551 24.8826C29.0356 20.7952 32.6205 17.9995 37.4062 17.2652V17.2741ZM38.3002 19.0081C36.144 19.3266 32.2173 21.2287 30.622 22.8035C25.8275 27.5367 21.559 48.469 20.998 55.5555C20.7351 58.8909 20.4108 70.4452 21.1646 73.0551C23.4435 80.9291 53.7442 82.0084 58.7052 75.9216C63.1579 70.4629 58.4686 43.9304 56.4877 36.5077C54.0334 27.2979 49.7999 17.3272 38.3002 19.0081Z" fill="#00287D"/>
</svg>
