<svg width="80" height="100" viewBox="0 0 80 100" fill="none" xmlns="http://www.w3.org/2000/svg">
<rect x="0.5" y="0.5" width="79" height="99" rx="23.5" fill="#FAFAFA"/>
<rect x="0.5" y="0.5" width="79" height="99" rx="23.5" stroke="white"/>
<path d="M44.5166 80.7593C36.8491 81.7394 21.2804 80.0264 20.1048 69.996C19.0934 61.3077 25.6545 38.3242 28.9653 29.5564C32.2415 20.8681 39.8659 12.4093 47.3001 22.7929C50.6455 27.4726 59.3849 56.7427 59.8776 62.9235C60.8458 75.0024 56.1001 79.2847 44.5166 80.7593ZM42.7878 79.0022C59.6011 77.3511 59.5319 68.8658 55.9877 54.5353C54.6737 49.2199 47.1877 24.1174 43.7991 21.9541C40.4105 19.7909 36.2785 21.0005 33.9273 24.0379C30.7288 28.179 21.4448 61.8286 21.8165 67.303C22.5253 77.7925 34.3681 79.8233 42.7791 78.9934L42.7878 79.0022Z" fill="#00287D"/>
</svg>
