<svg width="80" height="100" viewBox="0 0 80 100" fill="none" xmlns="http://www.w3.org/2000/svg">
<rect x="0.5" y="0.5" width="79" height="99" rx="23.5" fill="#FAFAFA"/>
<rect x="0.5" y="0.5" width="79" height="99" rx="23.5" stroke="white"/>
<path d="M36.3766 17.423C48.9791 14.4619 51.2744 27.6811 53.5783 37.3135C56.3722 48.9817 57.4811 58.9754 52.8476 70.4321C45.8586 87.7317 31.5196 84.5855 26.3015 67.9116C22.6222 56.173 23.8343 48.1357 26.5852 36.4499C27.8489 31.074 30.4192 18.8154 36.3766 17.4142V17.423ZM34.322 21.0274C29.4392 26.5531 25.6653 51.4052 26.4218 58.9842C27.3675 68.4668 35.1473 87.4761 46.5291 77.1739C57.249 67.4622 53.776 33.4888 46.4861 22.5609C43.8384 18.5951 37.5457 17.3878 34.3306 21.0363L34.322 21.0274Z" fill="#00287D"/>
</svg>
