<svg width="80" height="100" viewBox="0 0 80 100" fill="none" xmlns="http://www.w3.org/2000/svg">
<rect x="0.5" y="0.5" width="79" height="99" rx="23.5" fill="#FAFAFA"/>
<rect x="0.5" y="0.5" width="79" height="99" rx="23.5" stroke="white"/>
<path d="M46.2577 78.7095C44.7721 77.2722 42.1483 67.9128 41.6531 67.5797C37.4829 64.7842 37.0485 78.2275 32.3918 79.6384C22.1227 82.7495 23.1306 64.9156 22.34 59.4647C21.5928 54.303 18.9083 49.8072 18.3349 45.1012C17.3792 37.2841 17.9092 22.5701 27.5527 20.388C33.2172 19.1085 36.1276 24.1038 39.6635 24.4017C45.0934 24.8662 50.7754 13.8417 59.0636 25.0415C67.4648 36.3903 60.054 47.0292 58.4294 57.6857C57.5345 63.5748 58.968 80.0152 49.976 79.8575C48.9161 79.84 47.0135 79.4368 46.2577 78.7095ZM34.4682 24.0249C23.1653 16.4882 19.2471 33.7875 20.0899 42.4547C20.5937 47.6865 23.2349 52.1208 24.121 56.7918C24.9203 61.0159 23.9212 80.7776 31.9053 77.4913C34.642 76.3696 35.7714 64.2057 40.9059 65.3012C46.7094 66.5456 44.6938 79.3404 51.3053 77.7104C56.0662 76.5361 55.7535 60.4725 56.6831 55.9242C58.5684 46.7576 65.1103 34.1818 56.935 25.427C48.3253 16.2078 45.6408 30.8079 36.6576 26.5751C35.3023 25.9354 35.059 24.4193 34.4595 24.0161L34.4682 24.0249Z" fill="#00287D"/>
</svg>
