<svg width="244" height="359" viewBox="0 0 244 359" fill="none" xmlns="http://www.w3.org/2000/svg">
<path d="M224.501 18.0552C258.111 53.0452 241.031 118.395 222.011 157.755C216.411 169.345 209.981 176.645 196.201 177.445C195.341 185.935 198.741 195.175 192.201 201.945C190.441 203.765 186.651 205.245 186.151 206.145C185.311 207.675 184.641 216.925 185.151 217.405C185.791 218.005 197.131 216.005 196.151 225.805C195.231 234.935 183.121 231.555 182.201 232.445C181.591 233.045 179.541 248.805 180.151 249.395C181.151 250.375 192.281 246.535 191.241 257.905C190.521 265.775 182.671 263.235 178.781 264.515C176.801 265.165 174.521 280.785 175.151 281.385C175.851 282.055 186.921 279.845 186.251 289.895C185.681 298.505 173.731 295.765 172.301 297.525C171.821 298.115 169.931 311.935 170.101 312.675C170.371 313.855 177.831 315.945 175.751 322.425C174.321 326.885 168.721 326.295 167.391 327.625C166.981 328.035 163.981 336.095 162.571 338.305C142.741 369.555 87.8909 364.275 78.4509 326.585C77.6109 323.255 75.8708 306.175 75.1108 305.435C74.1408 304.495 59.7409 307.965 61.1809 296.975C62.2609 288.735 71.5508 290.975 72.1608 290.395C72.9008 289.685 70.7008 274.055 70.0508 273.495C68.7708 272.405 56.6808 275.765 55.1708 267.855C53.0008 256.495 66.4308 259.115 67.1608 258.395C68.2908 257.275 64.5908 244.145 65.1508 241.405C46.9308 245.975 43.4108 224.385 62.1608 226.395C61.5408 223.105 60.2708 207.005 58.8908 205.655C58.3508 205.125 56.4008 205.095 55.1108 203.965C45.8908 195.895 50.3808 189.095 48.7208 178.335C38.2108 175.685 31.0208 173.685 25.3408 163.715C14.2108 144.205 1.41085 99.2352 0.170847 76.8852C-2.35915 31.1052 23.2808 -5.22478 72.3808 0.675217C92.2208 3.05522 103.961 16.1152 126.701 14.4352C140.171 13.4452 152.741 4.64518 166.151 1.88518C189.341 -2.90482 208.191 1.06521 224.511 18.0452L224.501 18.0552ZM203.881 159.135C204.831 158.165 207.751 151.305 208.621 149.375C223.061 117.595 243.651 47.7152 208.061 24.0052C175.651 2.40517 149.271 33.2052 114.621 30.4452C87.7408 28.3052 67.0508 3.94522 37.2408 22.9952C2.88079 44.9452 18.0008 100.675 29.1408 131.935C32.3908 141.065 37.1008 160.535 47.6108 161.465H196.711C198.671 161.465 202.601 160.465 203.881 159.145V159.135ZM181.151 177.405H64.1508V191.405H181.151V177.405ZM171.151 206.405H75.1508C74.4708 208.515 76.7409 225.285 77.6909 225.435L168.501 218.265C170.801 217.525 170.801 209.025 171.141 206.405H171.151ZM167.151 233.415L81.8008 239.555L80.5809 240.345C79.0809 242.435 82.3809 253.055 82.2009 256.355C108.661 256.355 134.961 252.185 161.431 251.185C167.291 249.925 165.191 238.405 167.151 233.415ZM161.151 266.405L85.1408 272.415L88.1608 289.415L158.491 283.455C160.371 283.025 161.331 268.995 161.161 266.405H161.151ZM157.151 298.405L90.1508 303.405L92.1408 319.405L155.151 314.405L157.151 298.405ZM150.151 329.415L99.1608 333.905C112.621 348.095 140.001 346.875 150.151 329.415Z" fill="#00287D"/>
</svg>
