<svg width="258" height="323" viewBox="0 0 258 323" fill="none" xmlns="http://www.w3.org/2000/svg">
<path d="M89.8706 286.396C111.041 281.616 98.0806 318.456 81.5906 321.116C72.4206 322.596 66.0706 317.216 70.9506 308.476C73.5006 303.926 77.7306 305.216 80.5906 302.126C84.4306 297.976 84.0306 287.706 89.8606 286.396H89.8706Z" fill="#00287D"/>
<path d="M17.9006 110.376C21.3906 109.706 24.7206 111.236 26.5806 114.256C28.1706 116.856 36.1406 135.376 36.7106 138.126C38.9306 148.816 27.3806 154.176 21.6906 146.146C20.3706 144.276 10.6406 122.356 10.3206 120.416C9.60061 115.966 13.5406 111.206 17.9006 110.376Z" fill="#00287D"/>
<path d="M57.8606 0.396075C62.8206 -1.04393 84.2606 2.25608 88.8806 4.96608C95.7206 8.97608 93.7906 20.7061 85.6306 21.2561C81.3706 21.5461 77.4906 19.106 73.3806 18.476C68.8906 17.786 60.5706 17.8761 57.0906 16.7661C51.0106 14.8261 51.8206 2.16603 57.8606 0.416033V0.396075Z" fill="#00287D"/>
<path d="M34.9106 162.366C37.3006 162.076 40.5006 162.866 42.1906 164.636C46.6706 169.306 44.9207 190.276 45.9207 197.476C44.1107 205.406 30.5306 205.146 29.1606 197.666C27.5606 188.926 29.0906 178.616 27.1506 169.776C27.4906 166.166 31.4506 162.786 34.9106 162.366Z" fill="#00287D"/>
<path d="M16.8307 95.866C12.7107 99.636 4.59072 99.0059 2.61072 93.2259C1.05072 88.7059 -0.459318 70.4859 0.130682 65.6659C0.960682 58.8459 5.3907 55.526 12.2107 57.636C19.7907 59.986 16.7107 71.296 17.1607 77.676C17.5407 82.966 21.1207 91.946 16.8307 95.866Z" fill="#00287D"/>
<path d="M45.8506 219.466C49.3706 223.926 47.7206 244.066 50.1406 250.586C48.7306 257.486 40.3506 260.546 35.1906 255.626C30.6206 251.266 32.1306 230.606 30.3506 223.896C30.9806 216.986 42.0906 214.696 45.8506 219.456V219.466Z" fill="#00287D"/>
<path d="M31.9007 9.36595C34.2707 9.14595 37.5407 10.946 39.0107 12.826C46.3207 22.156 34.0107 26.606 29.1707 32.716C24.3307 38.826 23.8307 47.6659 13.4007 43.4259C11.0007 42.4459 8.55071 39.006 8.33071 36.436C7.76071 29.816 24.9807 10.006 31.8907 9.36595H31.9007Z" fill="#00287D"/>
<path d="M225.921 142.356C230.511 141.766 235.851 145.516 235.811 150.496C235.761 158.056 230.981 168.886 231.701 177.236C223.701 187.346 214.551 182.476 215.161 169.686C215.511 162.246 217.141 143.476 225.921 142.356Z" fill="#00287D"/>
<path d="M242.911 93.3559C248.201 92.4859 253.421 96.9559 252.961 102.386C252.661 105.906 245.571 126.246 243.591 129.106C239.101 135.616 226.761 132.526 228.371 121.926C228.601 120.436 236.251 98.5959 236.921 97.4459C238.001 95.5959 240.831 93.6959 242.901 93.3459L242.911 93.3559Z" fill="#00287D"/>
<path d="M220.911 194.366C232.611 192.936 230.541 206.816 230.191 214.726C230.061 217.666 229.231 227.976 228.401 229.936C225.581 236.536 214.001 235.336 212.181 228.666C213.421 221.516 211.171 201.046 216.081 196.616C217.221 195.586 219.421 194.556 220.921 194.376L220.911 194.366Z" fill="#00287D"/>
<path d="M111.881 13.406C114.671 13.136 117.681 15.026 120.661 15.176C125.681 15.426 135.401 14.206 139.441 15.396C146.501 17.466 145.541 30.726 136.591 32.136C130.961 33.026 114.821 32.356 109.571 30.266C100.791 26.786 103.941 14.166 111.881 13.406Z" fill="#00287D"/>
<path d="M180.911 0.445939C183.431 0.125939 187.231 -0.244041 189.631 0.215959C195.821 1.40596 197.161 11.8759 191.711 15.2459C186.731 18.3259 170.721 18.776 164.501 22.896C156.931 23.306 152.651 13.3759 157.601 8.12593C159.841 5.74593 177.021 0.935929 180.911 0.435929V0.445939Z" fill="#00287D"/>
<path d="M45.9106 269.366C55.8706 268.136 56.0306 280.176 58.6606 287.166C59.8306 290.276 63.5207 295.316 63.9807 297.936C65.3007 305.536 53.8106 310.696 48.6906 305.136C45.3306 301.486 36.9806 279.456 38.3306 274.906C39.0306 272.536 43.4706 269.666 45.9106 269.366Z" fill="#00287D"/>
<path d="M243.871 42.3962C255.731 39.7362 256.621 51.9462 257.191 60.6462C257.581 66.5462 258.981 79.7461 251.621 81.1661C237.021 83.9961 240.781 69.3262 240.131 60.7062C239.701 54.9262 234.541 44.4862 243.861 42.3962H243.871Z" fill="#00287D"/>
<path d="M214.871 246.376C220.081 245.226 226.201 249.056 226.081 254.546C226.001 257.936 221.781 278.006 220.371 280.896C216.791 288.206 203.611 286.426 204.121 276.726C204.311 273.086 207.691 255.906 208.811 252.336C209.651 249.676 212.101 246.986 214.871 246.376Z" fill="#00287D"/>
<path d="M107.871 237.466C108.921 238.516 110.101 241.956 110.081 243.556C110.061 246.556 106.681 266.346 105.691 269.226C103.031 276.916 89.6706 275.406 89.0606 267.696C88.8906 265.526 92.6207 241.746 93.4207 239.956C95.6907 234.886 104.081 233.666 107.871 237.466Z" fill="#00287D"/>
<path d="M215.791 3.50595C222.801 3.05595 243.211 17.396 243.041 24.716C242.951 28.456 238.941 32.316 235.401 33.006C229.171 34.206 226.821 28.5159 222.481 25.3659C215.741 20.4659 205.231 20.056 208.601 9.13596C209.451 6.39596 212.931 3.69595 215.791 3.50595Z" fill="#00287D"/>
<path d="M161.901 279.376C171.551 277.526 171.151 286.776 172.591 292.236C173.391 295.256 177.151 304.996 177.101 306.576C176.891 313.126 169.471 317.756 163.571 314.246C158.571 311.276 154.311 291.276 155.211 285.736C155.761 282.356 158.591 279.996 161.901 279.366V279.376Z" fill="#00287D"/>
<path d="M143.901 201.376C151.311 200.706 163.031 222.056 161.981 228.436C161.181 233.306 156.841 236.706 151.921 235.996C144.601 234.936 145.141 227.676 142.541 222.306C139.531 216.096 133.311 213.506 137.281 205.826C138.391 203.686 141.511 201.596 143.901 201.386V201.376Z" fill="#00287D"/>
<path d="M128.811 210.836C126.681 212.976 122.901 213.236 120.631 215.156C115.881 219.166 115.321 230.536 104.781 225.056C88.3106 216.486 123.751 184.996 130.401 200.436C131.911 203.946 131.531 208.116 128.811 210.836Z" fill="#00287D"/>
<path d="M196.461 296.496C199.731 293.496 205.111 293.626 208.511 296.326C220.661 305.996 186.621 333.016 181.601 317.236C178.011 305.966 187.351 307.046 192.201 302.726C194.181 300.966 195.031 297.796 196.461 296.486V296.496Z" fill="#00287D"/>
<path d="M154.851 241.396C169.881 236.906 167.141 257.686 169.181 266.626C166.871 273.846 155.511 276.036 152.411 268.416C151.871 267.076 149.171 249.006 149.331 247.886C149.591 246.106 153.141 241.906 154.851 241.396Z" fill="#00287D"/>
</svg>
