<svg width="303" height="349" viewBox="0 0 303 349" fill="none" xmlns="http://www.w3.org/2000/svg">
<path d="M266.516 100.408C270.756 105.648 265.036 133.538 263.146 140.948C258.036 160.968 246.296 178.588 243.116 198.918C239.936 219.248 241.676 240.728 239.816 261.618C237.526 287.418 226.886 357.578 187.796 347.658C166.056 342.138 164.526 294.398 160.336 276.118C156.756 260.508 145.606 222.198 122.806 239.608C104.566 253.538 104.176 302.588 97.5459 324.348C88.3759 354.488 61.1859 356.658 45.3059 330.148C25.1659 296.528 28.8559 252.888 26.8659 215.588C24.9659 180.068 5.17595 154.178 0.955949 119.498C-6.51405 58.2279 30.2959 14.4879 93.8259 31.6279C104.326 34.4579 115.466 40.2979 126.296 41.1579C149.196 42.9879 164.886 29.9179 186.346 28.1379C193.566 27.5379 215.766 26.8279 208.246 40.0279C204.476 46.6379 196.746 43.4379 190.346 44.1379C171.856 46.1479 155.196 56.7279 137.316 58.1079C104.466 60.6379 80.266 33.8279 45.846 48.6379C11.146 63.5679 13.0959 108.278 21.5659 138.888C26.8259 157.868 37.4259 174.108 40.5359 193.918C46.8359 234.008 38.4059 277.708 55.9759 316.478C64.9859 336.368 78.0359 339.688 83.5359 315.328C89.9259 286.998 91.1159 220.478 132.386 219.098C167.006 217.938 174.816 265.758 179.536 290.918C181.316 300.408 182.266 342.208 200.786 330.578C212.346 323.318 219.506 290.498 221.536 277.328C225.186 253.698 223.566 230.228 225.836 206.628C228.866 175.148 245.876 152.198 250.666 121.458C251.446 116.468 251.156 105.708 252.576 102.368C254.686 97.4279 263.376 96.5079 266.526 100.408H266.516Z" fill="#00287D"/>
<path d="M92.1359 69.4278C92.7059 68.8078 94.7959 67.5478 95.5759 67.3578C100.296 66.2678 114.616 72.3378 121.436 72.9878C152.756 75.9878 173.986 57.0278 201.206 60.2178C251.616 66.1278 246.876 162.578 191.276 158.148C156.536 155.378 160.836 117.958 135.586 109.838C122.906 105.758 110.256 107.898 99.2659 97.1578C93.5759 91.5878 85.7959 76.3378 92.1259 69.4278H92.1359Z" fill="#00287D"/>
<path d="M258.546 0.287893C267.966 -2.39211 267.556 14.3479 270.336 21.0979C273.656 29.1479 277.856 32.3879 285.836 35.5979C291.366 37.8279 306.036 38.5979 302.076 46.8679C300.496 50.1679 289.176 51.7979 284.836 53.6279C275.246 57.6779 271.956 61.7179 268.766 71.5579C266.576 78.3279 267.806 91.0779 257.756 87.6579C253.786 86.3079 253.446 75.2479 251.846 70.5679C249.336 63.2279 245.886 58.0779 238.786 54.6279C233.336 51.9879 217.866 50.8479 217.886 44.6079C217.906 38.1279 230.506 37.6679 235.796 35.5979C244.446 32.1979 247.486 29.2979 250.836 20.6379C252.716 15.7879 254.296 1.49789 258.546 0.287893ZM275.816 45.1079C268.676 40.1879 263.516 36.6979 260.316 28.1279C258.246 36.2079 251.806 40.8979 244.826 44.6279C252.006 47.7979 258.166 53.4879 260.326 61.1379C263.376 54.1679 268.016 47.0879 275.826 45.1179L275.816 45.1079Z" fill="#00287D"/>
</svg>
