<svg width="280" height="377" viewBox="0 0 280 377" fill="none" xmlns="http://www.w3.org/2000/svg">
<path d="M57.965 56.0989C88.9851 52.5989 104.955 67.4489 132.725 69.8489C137.715 70.2789 140.875 67.0389 144.645 72.8589C147.295 76.9389 146.675 83.0489 141.935 85.0689C139.005 86.3189 132.025 86.0789 128.645 85.8589C95.805 83.7289 62.885 53.9889 31.285 86.4189C-0.0350056 118.569 22.795 167.069 35.205 201.299C51.215 245.449 39.885 294.469 57.165 339.339C61.925 351.699 77.425 374.019 86.965 352.089C98.615 325.299 95.545 248.569 138.695 247.739C178.655 246.959 181.405 316.959 188.865 343.639C196.325 370.319 211.615 362.599 220.655 341.779C234.755 309.329 232.265 272.639 235.205 238.329C238.315 201.949 261.275 175.009 263.235 138.359C264.675 111.399 257.395 86.7489 231.185 75.3289C225.785 72.9789 216.565 73.3789 217.405 64.5589C218.985 48.1489 248.285 65.4789 254.665 70.8489C283.795 95.4089 282.805 139.179 272.695 172.819C266.955 191.899 256.325 207.769 252.675 227.799C249.025 247.829 250.385 269.609 248.195 290.319C245.545 315.359 236.195 376.249 202.655 376.849C172.445 377.389 170.805 328.049 165.715 306.809C162.505 293.409 152.305 250.989 130.705 266.829C109.615 282.289 112.345 339.349 98.7351 362.859C88.2751 380.929 67.295 380.479 54.175 365.349C31.085 338.729 31.555 282.769 29.185 249.339C25.955 203.599 -2.33501 171.029 0.154989 124.289C1.91499 91.2389 23.2551 60.0289 57.9751 56.1089L57.965 56.0989Z" fill="#00287D"/>
<path d="M179.285 107.919C167.745 147.149 151.255 185.169 145.955 226.079C142.765 233.549 131.315 231.379 130.475 224.209C130.115 221.089 132.825 206.829 133.655 202.789C136.495 188.969 141.745 173.679 145.925 160.059C151.765 140.989 159.375 122.189 164.125 102.909C155.525 100.249 153.215 92.9489 154.435 84.5589C154.865 81.6289 159.045 67.9289 160.405 65.5289C161.765 63.1289 164.225 62.9389 164.985 61.1089C166.105 58.4089 166.635 52.3489 167.695 48.8189C170.425 39.7589 176.995 12.2989 181.185 6.3089C190.415 -6.8611 221.245 2.2589 221.275 18.3089C221.295 26.5789 210.505 54.6989 207.205 64.3289C206.475 66.4689 203.615 71.3789 203.455 72.4989C203.205 74.2889 204.995 76.0589 204.905 78.1589C204.785 81.1489 197.315 100.969 195.195 103.329C191.195 107.809 184.845 108.099 179.275 107.919H179.285ZM180.215 60.7789C183.275 60.2889 191.055 64.9989 192.675 62.8289C193.875 55.0589 207.615 24.9189 206.035 19.5289C205.175 16.5989 194.505 13.5389 192.675 15.8089L180.215 60.7889V60.7789ZM172.305 72.9489C171.355 73.5589 167.665 87.5689 168.685 89.7989C170.255 93.2389 180.745 96.0489 184.195 94.3289C186.025 93.4189 190.805 79.2589 189.765 77.7789C188.955 76.6289 173.855 71.9489 172.305 72.9389V72.9489Z" fill="#00287D"/>
<path d="M163.905 200.999C166.745 200.569 175.695 205.319 178.485 207.019C210.815 226.649 216.015 271.959 214.225 306.359C213.925 312.079 211.095 339.619 208.675 342.809C205.675 346.769 198.525 345.039 197.395 340.099C195.895 333.559 197.625 321.769 197.175 314.319C195.775 291.349 187.285 252.929 168.095 238.399C164.385 235.589 156.205 233.199 155.355 229.079C154.425 224.579 158.805 220.159 159.125 215.169C159.395 210.839 156.255 202.159 163.905 200.999Z" fill="#00287D"/>
<path d="M113.925 201.059C128.675 198.679 120.065 212.129 120.155 219.359C120.195 222.809 123.035 224.349 121.985 229.089C121.125 232.969 113.615 235.729 110.265 238.399C85.245 258.369 81.955 303.719 80.375 333.309C80.265 335.359 81.6051 337.089 80.9951 340.079C79.8851 345.499 72.8851 346.539 69.7151 342.779C67.5551 340.219 64.405 309.809 64.145 304.349C62.565 271.019 72.745 207.699 113.925 201.049V201.059Z" fill="#00287D"/>
</svg>
