<svg width="46" height="61" viewBox="0 0 46 61" fill="none" xmlns="http://www.w3.org/2000/svg">
<path d="M10.6123 0.361157C15.7956 -0.6922 19.4087 5.08819 22.888 5.1056C27.7768 5.13172 32.6478 -6.64673 41.5691 5.48864C50.4903 17.624 43.5317 28.0444 41.4263 40.0579C40.4539 45.6033 41.5869 58.7311 34.0574 60.7943C27.1523 62.6833 27.0988 51.0181 22.888 48.1017C18.695 50.9832 19.1232 60.7769 13.0657 60.7507C3.99275 60.7159 5.23281 44.6544 4.36745 39.17C3.05602 30.8563 -0.797955 26.0073 0.147697 16.3182C0.647287 11.2168 4.99194 1.49285 10.6034 0.352443L10.6123 0.361157ZM19.9975 47.4488C26.9471 40.9024 28.5708 57.5907 31.9876 58.4264C39.6332 60.2893 38.741 42.3562 39.4993 38.1776C41.462 27.348 47.9388 18.1899 40.1506 6.88152C32.9511 -3.565 29.2667 7.22102 22.8969 7.22102C16.3576 7.22102 14.618 -2.08509 7.2847 4.99243C-2.55544 14.4901 4.16225 27.2348 6.18738 37.4115C7.02597 41.6423 6.50855 57.9128 12.3877 58.4003C17.446 58.8181 17.4103 49.8951 19.9975 47.4488Z" fill="#00287D"/>
</svg>
