<svg width="44" height="44" viewBox="0 0 44 44" fill="none" xmlns="http://www.w3.org/2000/svg">
<rect x="0.2" y="0.2" width="43.6" height="43.6" rx="14.8" fill="white"/>
<rect x="0.2" y="0.2" width="43.6" height="43.6" rx="14.8" stroke="#D6D6D6" stroke-width="0.4"/>
<path d="M12 30V22C12 21.4696 12.2107 20.9609 12.5858 20.5858C12.9609 20.2107 13.4696 20 14 20H30C30.5304 20 31.0391 20.2107 31.4142 20.5858C31.7893 20.9609 32 21.4696 32 22V30" stroke="black" stroke-width="1.3" stroke-linecap="round" stroke-linejoin="round"/>
<path d="M14 20V16C14 15.4696 14.2107 14.9609 14.5858 14.5858C14.9609 14.2107 15.4696 14 16 14H28C28.5304 14 29.0391 14.2107 29.4142 14.5858C29.7893 14.9609 30 15.4696 30 16V20" stroke="black" stroke-width="1.3" stroke-linecap="round" stroke-linejoin="round"/>
<path d="M22 14V20" stroke="black" stroke-width="1.3" stroke-linecap="round" stroke-linejoin="round"/>
<path d="M12 28H32" stroke="black" stroke-width="1.3" stroke-linecap="round" stroke-linejoin="round"/>
</svg>
