<svg width="44" height="44" viewBox="0 0 44 44" fill="none" xmlns="http://www.w3.org/2000/svg">
<rect x="0.2" y="0.2" width="43.6" height="43.6" rx="14.8" fill="white"/>
<rect x="0.2" y="0.2" width="43.6" height="43.6" rx="14.8" stroke="#D6D6D6" stroke-width="0.4"/>
<path d="M18 12V15" stroke="#171717" stroke-width="1.3" stroke-miterlimit="10" stroke-linecap="round" stroke-linejoin="round"/>
<path d="M26 12V15" stroke="#171717" stroke-width="1.3" stroke-miterlimit="10" stroke-linecap="round" stroke-linejoin="round"/>
<path d="M13.5 19.0898H30.5" stroke="#171717" stroke-width="1.3" stroke-miterlimit="10" stroke-linecap="round" stroke-linejoin="round"/>
<path d="M31 18.5V27C31 30 29.5 32 26 32H18C14.5 32 13 30 13 27V18.5C13 15.5 14.5 13.5 18 13.5H26C29.5 13.5 31 15.5 31 18.5Z" stroke="#171717" stroke-width="1.3" stroke-miterlimit="10" stroke-linecap="round" stroke-linejoin="round"/>
<path d="M21.9945 23.6992H22.0035" stroke="#171717" stroke-width="1.3" stroke-linecap="round" stroke-linejoin="round"/>
<path d="M18.2953 23.6992H18.3043" stroke="#171717" stroke-width="1.3" stroke-linecap="round" stroke-linejoin="round"/>
<path d="M18.2953 26.6992H18.3043" stroke="#171717" stroke-width="1.3" stroke-linecap="round" stroke-linejoin="round"/>
</svg>
