<svg width="44" height="44" viewBox="0 0 44 44" fill="none" xmlns="http://www.w3.org/2000/svg">
<rect x="0.2" y="0.2" width="43.6" height="43.6" rx="14.8" fill="white"/>
<rect x="0.2" y="0.2" width="43.6" height="43.6" rx="14.8" stroke="#D6D6D6" stroke-width="0.4"/>
<path d="M19.9154 14.4992H20.7487C21.6692 14.4992 22.4154 15.2454 22.4154 16.1659V19.4994C22.4154 21.8006 20.5499 23.666 18.2487 23.666M16.582 14.4992H15.7487C14.8282 14.4992 14.082 15.2454 14.082 16.1659V19.4994C14.082 21.8005 15.9475 23.666 18.2487 23.666M18.2487 23.666V25.7494C18.2487 28.2807 20.3007 30.3327 22.832 30.3327C25.3633 30.3327 27.4154 28.2807 27.4154 25.7494V24.916M27.4154 24.916C28.566 24.916 29.4987 23.9833 29.4987 22.8327C29.4987 21.6821 28.566 20.7494 27.4154 20.7494C26.2648 20.7494 25.332 21.6821 25.332 22.8327C25.332 23.9833 26.2648 24.916 27.4154 24.916ZM19.9154 13.666L19.9153 15.3325M16.582 13.666V15.3327" stroke="black" stroke-width="1.3" stroke-linecap="round" stroke-linejoin="round"/>
</svg>
