<svg width="44" height="44" viewBox="0 0 44 44" fill="none" xmlns="http://www.w3.org/2000/svg">
<rect x="0.2" y="0.2" width="43.6" height="43.6" rx="14.8" fill="white"/>
<rect x="0.2" y="0.2" width="43.6" height="43.6" rx="14.8" stroke="#D6D6D6" stroke-width="0.4"/>
<path d="M19 24.5H22M22 24.5H25M22 24.5V21.5M22 24.5V27.5M13 18V27C13 29.2091 14.7909 31 17 31H27C29.2091 31 31 29.2091 31 27V18M13 18H31M13 18C13 15.7909 14.7909 14 17 14M31 18C31 15.7909 29.2091 14 27 14M17 12V14M17 14H27M27 12V14" stroke="black" stroke-width="1.3" stroke-linecap="round" stroke-linejoin="round"/>
</svg>
