<svg width="24" height="24" viewBox="0 0 24 24" fill="none" xmlns="http://www.w3.org/2000/svg">
<path d="M8.15882 22C3.97882 22 3.13882 19.47 4.49882 16.39L8.74882 6.74H8.44882C7.79882 6.74 7.19882 6.48 6.76882 6.05C6.32882 5.62 6.06882 5.02 6.06882 4.37C6.06882 3.07 7.12882 2 8.43882 2H15.5488C16.2088 2 16.7988 2.27 17.2288 2.7C17.7888 3.26 18.0688 4.08 17.8588 4.95C17.5888 6.03 16.5488 6.74 15.4388 6.74H15.2788L19.4988 16.4C20.8488 19.48 19.9688 22 15.8288 22H8.15882Z" stroke="white" stroke-width="1.5" stroke-linecap="round" stroke-linejoin="round"/>
<path d="M5.94141 13.1194C5.94141 13.1194 9.00141 12.9994 12.0014 13.9994C15.0014 14.9994 17.8314 13.1094 17.8314 13.1094" stroke="white" stroke-width="1.5" stroke-linecap="round" stroke-linejoin="round"/>
</svg>
