<svg width="44" height="44" viewBox="0 0 44 44" fill="none" xmlns="http://www.w3.org/2000/svg">
<rect x="0.2" y="0.2" width="43.6" height="43.6" rx="14.8" fill="white"/>
<rect x="0.2" y="0.2" width="43.6" height="43.6" rx="14.8" stroke="#D6D6D6" stroke-width="0.4"/>
<path d="M31.5464 21.5686C31.8361 20.7339 32 19.8733 32 19C32 15.9625 29.5375 13.5 26.5 13.5C24.6398 13.5 22.9953 14.4235 22 15.8369C21.0047 14.4235 19.3601 13.5 17.5 13.5C14.4624 13.5 12 15.9625 12 19C12 24.5 18.5 29.5 22 30.6631C22.8647 30.3758 23.9124 29.8542 25 29.1489M21.5 22.5H24L26 26.5L28 20.5L30 24.5H32.5" stroke="black" stroke-width="1.3" stroke-linecap="round" stroke-linejoin="round"/>
</svg>
