<svg width="44" height="44" viewBox="0 0 44 44" fill="none" xmlns="http://www.w3.org/2000/svg">
<rect x="0.2" y="0.2" width="43.6" height="43.6" rx="14.8" fill="white"/>
<rect x="0.2" y="0.2" width="43.6" height="43.6" rx="14.8" stroke="#D6D6D6" stroke-width="0.4"/>
<path d="M13.1719 17.4395L22.0019 22.5495L30.7719 17.4695" stroke="black" stroke-width="1.3" stroke-linecap="round" stroke-linejoin="round"/>
<path d="M22 31.6091V22.5391" stroke="black" stroke-width="1.3" stroke-linecap="round" stroke-linejoin="round"/>
<path d="M19.9306 12.4793L14.5906 15.4393C13.3806 16.1093 12.3906 17.7893 12.3906 19.1693V24.8193C12.3906 26.1993 13.3806 27.8793 14.5906 28.5493L19.9306 31.5193C21.0706 32.1493 22.9406 32.1493 24.0806 31.5193L29.4206 28.5493C30.6306 27.8793 31.6206 26.1993 31.6206 24.8193V19.1693C31.6206 17.7893 30.6306 16.1093 29.4206 15.4393L24.0806 12.4693C22.9306 11.8393 21.0706 11.8393 19.9306 12.4793Z" stroke="black" stroke-width="1.3" stroke-linecap="round" stroke-linejoin="round"/>
</svg>
