<svg width="20" height="20" viewBox="0 0 20 20" fill="none" xmlns="http://www.w3.org/2000/svg">
<rect width="20" height="20" rx="10" fill="url(#paint0_linear_839_14427)"/>
<path d="M15.0677 5V7.63028C14.5557 7.1603 13.8735 6.87292 13.1252 6.87292C11.5399 6.87292 10.25 8.16275 10.25 9.74803C10.25 11.3333 11.5399 12.6231 13.1252 12.6231C13.8735 12.6231 14.5557 12.3358 15.0677 11.8658V12.618H16.0005V5H15.0677ZM13.1252 11.6904C12.0541 11.6904 11.1827 10.8192 11.1827 9.74803C11.1827 8.6769 12.0541 7.80562 13.1252 7.80562C14.1964 7.80562 15.0677 8.6769 15.0677 9.74803C15.0677 10.8192 14.1964 11.6904 13.1252 11.6904Z" fill="white"/>
<path d="M8.98175 6.91533V7.69774C8.48697 7.16904 7.76325 6.87305 6.93448 6.87305C5.23412 6.87332 4 8.06295 4 9.70209C4 10.5071 4.30032 11.2373 4.8452 11.7579C5.38146 12.2702 6.12349 12.5521 6.93448 12.5521C7.74547 12.5521 8.45842 12.2645 8.94997 11.7506V12.0345C8.94997 13.3262 8.36415 13.9023 7.05057 13.9023C6.24685 13.9023 5.46711 13.6324 4.96478 13.1805L4.83738 13.066L4.29304 13.8824L4.38381 13.9683C4.9769 14.529 5.98155 14.8638 7.07131 14.8638C8.04821 14.8638 8.76143 14.6303 9.25163 14.1501C9.75207 13.6596 9.99528 12.9368 9.99528 11.94V6.91533H8.98121H8.98175ZM7.00828 11.5909C5.85873 11.5909 5.05609 10.8142 5.05609 9.70209C5.05609 8.59003 5.85873 7.82378 7.00828 7.82378C8.15783 7.82378 8.97098 8.59622 8.97098 9.70209C8.97098 10.808 8.16376 11.5909 7.00828 11.5909Z" fill="white"/>
<defs>
<linearGradient id="paint0_linear_839_14427" x1="0" y1="10" x2="20" y2="10" gradientUnits="userSpaceOnUse">
<stop stop-color="#DF6926"/>
<stop offset="1" stop-color="#E3352F"/>
</linearGradient>
</defs>
</svg>
