<?xml version="1.0" encoding="UTF-8"?>
<svg id="Layer_1" data-name="Layer 1" xmlns="http://www.w3.org/2000/svg" version="1.1" viewBox="0 0 1645.48 180.7">
  <g>
    <path d="M258.61,163.78v-57.57h21.72c11.12,0,17.47,7.77,17.47,16.83s-6.43,16.83-17.47,16.83h-16.77v23.91h-4.95ZM292.58,123.04c0-7.25-5.04-12.34-12.77-12.34h-16.25v24.69h16.25c7.73,0,12.77-5.18,12.77-12.34h0Z" style="fill: #171717; stroke-width: 0px;"/>
    <path d="M302.93,142.9c0-12.17,7.82-21.84,20.07-21.84s20.25,9.67,20.25,21.84-7.82,21.92-20.25,21.92-20.07-9.75-20.07-21.92ZM338.38,142.9c0-9.24-5.47-17.78-15.38-17.78s-15.29,8.55-15.29,17.78,5.56,17.87,15.29,17.87,15.38-8.55,15.38-17.87Z" style="fill: #171717; stroke-width: 0px;"/>
    <path d="M389.13,163.78l-11.73-35.65-11.82,35.65h-4.34l-13.64-41.69h4.87l11.12,35.39,11.82-35.39h3.91l11.82,35.39,11.12-35.39h4.87l-13.64,41.69h-4.36Z" style="fill: #171717; stroke-width: 0px;"/>
    <path d="M411.56,142.9c0-12.08,8.52-21.84,20.16-21.84,12.77,0,19.81,10.01,19.81,22.1v1.21h-35.11c.43,9.06,6.52,16.57,16.42,16.57,5.3,0,10.17-1.99,13.73-5.78l2.35,2.93c-4.17,4.32-9.47,6.73-16.42,6.73-12.25,0-20.94-9.06-20.94-21.92ZM431.63,124.94c-9.91,0-14.86,8.63-15.21,15.88h30.5c-.09-7.08-4.78-15.88-15.29-15.88Z" style="fill: #171717; stroke-width: 0px;"/>
    <path d="M461.44,163.78v-41.69h4.52v7.16c3.56-4.66,8.34-8.03,14.16-8.03v4.92c-.78-.17-1.39-.17-2.26-.17-4.26,0-9.99,3.8-11.91,7.42v30.38h-4.52.01Z" style="fill: #171717; stroke-width: 0px;"/>
    <path d="M484.9,142.9c0-12.08,8.52-21.84,20.16-21.84,12.77,0,19.81,10.01,19.81,22.1v1.21h-35.11c.43,9.06,6.52,16.57,16.42,16.57,5.3,0,10.17-1.99,13.73-5.78l2.35,2.93c-4.17,4.32-9.47,6.73-16.42,6.73-12.25,0-20.94-9.06-20.94-21.92ZM504.98,124.94c-9.91,0-14.86,8.63-15.21,15.88h30.5c-.09-7.08-4.78-15.88-15.29-15.88Z" style="fill: #171717; stroke-width: 0px;"/>
    <path d="M565.72,163.78v-6.65c-2.95,4.32-8.34,7.68-14.6,7.68-11.12,0-18.68-8.46-18.68-21.84s7.56-21.93,18.68-21.93c6,0,11.3,3.02,14.6,7.77v-22.62h4.61v57.57h-4.61v.02ZM565.72,153.34v-20.63c-2.43-4.06-7.91-7.6-13.82-7.6-9.3,0-14.69,7.77-14.69,17.87s5.39,17.78,14.69,17.78c5.91,0,11.38-3.45,13.82-7.42Z" style="fill: #171717; stroke-width: 0px;"/>
    <path d="M603.44,163.78v-57.57h4.52v22.62c3.39-4.75,8.69-7.77,14.6-7.77,11.21,0,18.77,8.72,18.77,21.93s-7.65,21.84-18.77,21.84c-6.26,0-11.64-3.37-14.6-7.68v6.65h-4.52v-.02ZM621.77,160.76c9.39,0,14.69-7.68,14.69-17.78s-5.3-17.87-14.69-17.87c-5.82,0-11.38,3.63-13.82,7.6v20.63c2.43,3.97,7.99,7.42,13.82,7.42Z" style="fill: #171717; stroke-width: 0px;"/>
    <path d="M649.32,175.96c.96.43,2.61.69,3.65.69,2.78,0,4.69-1.12,6.43-5.09l3.3-7.42-17.81-42.04h5.04l15.29,36.43,15.12-36.43h5.13l-21.73,50.84c-2.26,5.27-5.82,7.77-10.69,7.77-1.48,0-3.39-.26-4.52-.6l.78-4.14h.01Z" style="fill: #171717; stroke-width: 0px;"/>
    <path d="M754.3,163.78l-5.74-14.16h-30.67l-5.74,14.16h-5.74l23.72-57.57h6.17l23.72,57.57h-5.74.02ZM733.27,111.48l-13.73,33.66h27.37s-13.64-33.66-13.64-33.66Z" style="fill: #171717; stroke-width: 0px;"/>
    <path d="M766.81,163.78v-57.57h4.95v57.57h-4.95Z" style="fill: #171717; stroke-width: 0px;"/>
    <path d="M784.8,174.31l-2.52-2.07c2.78-1.9,4.87-5.27,5.04-7.94,0,0-.61.09-.87.09-2.08,0-3.56-1.55-3.56-3.62s1.65-3.71,3.74-3.71c2.35,0,4.43,1.99,4.43,5.52,0,4.83-2.87,9.41-6.26,11.74h0Z" style="fill: #171717; stroke-width: 0px;"/>
    <path d="M822.43,174.4l2.61-3.63c3.65,4.32,7.65,5.87,13.99,5.87,7.56,0,14.25-3.8,14.25-13.21v-6.65c-2.95,4.32-8.34,7.85-14.6,7.85-11.12,0-18.68-8.37-18.68-21.75s7.56-21.84,18.68-21.84c6,0,11.21,3.02,14.6,7.77v-6.73h4.61v41.35c0,12.69-8.69,17.26-18.86,17.26-7.13,0-11.64-1.29-16.6-6.3h0ZM853.28,152.99v-20.28c-2.43-4.06-7.99-7.6-13.82-7.6-9.3,0-14.69,7.68-14.69,17.78s5.39,17.7,14.69,17.7c5.82,0,11.38-3.54,13.82-7.6Z" style="fill: #171717; stroke-width: 0px;"/>
    <path d="M898.47,163.78v-6.13c-3.39,3.8-9.04,7.16-15.12,7.16-8.52,0-13.21-3.97-13.21-13.38v-29.35h4.52v28.31c0,8.11,4.08,10.36,10.17,10.36,5.39,0,10.86-3.19,13.64-6.91v-31.77h4.52v41.69h-4.52v.02Z" style="fill: #171717; stroke-width: 0px;"/>
    <path d="M914.11,112.08c0-1.9,1.65-3.37,3.48-3.37s3.48,1.47,3.48,3.37-1.56,3.45-3.48,3.45-3.48-1.55-3.48-3.45ZM915.33,163.78v-41.69h4.52v41.69h-4.52Z" style="fill: #171717; stroke-width: 0px;"/>
    <path d="M963.12,163.78v-6.65c-2.95,4.32-8.34,7.68-14.6,7.68-11.12,0-18.68-8.46-18.68-21.84s7.56-21.93,18.68-21.93c6,0,11.3,3.02,14.6,7.77v-22.62h4.61v57.57h-4.61v.02ZM963.12,153.34v-20.63c-2.43-4.06-7.91-7.6-13.82-7.6-9.3,0-14.69,7.77-14.69,17.87s5.39,17.78,14.69,17.78c5.91,0,11.38-3.45,13.82-7.42Z" style="fill: #171717; stroke-width: 0px;"/>
    <path d="M977.72,142.9c0-12.08,8.52-21.84,20.16-21.84,12.77,0,19.81,10.01,19.81,22.1v1.21h-35.11c.43,9.06,6.52,16.57,16.42,16.57,5.3,0,10.17-1.99,13.73-5.78l2.35,2.93c-4.17,4.32-9.47,6.73-16.42,6.73-12.25,0-20.94-9.06-20.94-21.92h0ZM997.8,124.94c-9.91,0-14.86,8.63-15.21,15.88h30.5c-.09-7.08-4.78-15.88-15.29-15.88Z" style="fill: #171717; stroke-width: 0px;"/>
    <path d="M1058.54,163.78v-6.65c-2.95,4.32-8.34,7.68-14.6,7.68-11.12,0-18.68-8.46-18.68-21.84s7.56-21.93,18.68-21.93c6,0,11.3,3.02,14.6,7.77v-22.62h4.61v57.57h-4.61v.02ZM1058.54,153.34v-20.63c-2.43-4.06-7.91-7.6-13.82-7.6-9.3,0-14.69,7.77-14.69,17.87s5.39,17.78,14.69,17.78c5.91,0,11.38-3.45,13.82-7.42Z" style="fill: #171717; stroke-width: 0px;"/>
    <path d="M1096.26,163.78v-57.57h4.52v22.62c3.39-4.75,8.69-7.77,14.6-7.77,11.21,0,18.77,8.72,18.77,21.93s-7.65,21.84-18.77,21.84c-6.26,0-11.64-3.37-14.6-7.68v6.65h-4.52v-.02ZM1114.59,160.76c9.39,0,14.69-7.68,14.69-17.78s-5.3-17.87-14.69-17.87c-5.82,0-11.38,3.63-13.82,7.6v20.63c2.43,3.97,7.99,7.42,13.82,7.42Z" style="fill: #171717; stroke-width: 0px;"/>
    <path d="M1142.14,175.96c.96.43,2.61.69,3.65.69,2.78,0,4.69-1.12,6.43-5.09l3.3-7.42-17.81-42.04h5.04l15.29,36.43,15.12-36.43h5.13l-21.72,50.84c-2.26,5.27-5.82,7.77-10.69,7.77-1.48,0-3.39-.26-4.52-.6l.78-4.14h0Z" style="fill: #171717; stroke-width: 0px;"/>
    <path d="M1202.63,142.9c0-12.17,8-21.84,20.33-21.84,7.3,0,11.47,2.85,14.86,7.08l-3.13,2.76c-3.04-4.14-6.86-5.78-11.47-5.78-9.82,0-15.82,7.77-15.82,17.78s6,17.87,15.82,17.87c4.61,0,8.43-1.73,11.47-5.87l3.13,2.76c-3.39,4.32-7.56,7.16-14.86,7.16-12.34,0-20.33-9.75-20.33-21.92Z" style="fill: #171717; stroke-width: 0px;"/>
    <path d="M1243.82,142.9c0-12.17,7.82-21.84,20.07-21.84s20.25,9.67,20.25,21.84-7.82,21.92-20.25,21.92-20.07-9.75-20.07-21.92ZM1279.27,142.9c0-9.24-5.47-17.78-15.38-17.78s-15.29,8.55-15.29,17.78,5.56,17.87,15.29,17.87,15.38-8.55,15.38-17.87Z" style="fill: #171717; stroke-width: 0px;"/>
    <path d="M1344.02,163.78v-29.18c0-5.87-2.52-9.5-8.43-9.5-4.52,0-9.65,3.28-11.99,7.08v31.59h-4.61v-29.18c0-5.87-2.43-9.5-8.34-9.5-4.52,0-9.56,3.37-12.08,7.16v31.51h-4.52v-41.69h4.52v6.3c1.74-2.68,7.47-7.34,13.56-7.34,6.52,0,9.99,3.8,11.04,7.85,2.35-3.88,8-7.85,13.9-7.85,7.73,0,11.47,4.32,11.47,12.69v30.04h-4.52v.02Z" style="fill: #171717; stroke-width: 0px;"/>
    <path d="M1365.4,157.05v22.62h-4.52v-57.57h4.52v6.56c2.95-4.23,8.34-7.6,14.6-7.6,11.21,0,18.77,8.46,18.77,21.84s-7.56,21.92-18.77,21.92c-5.91,0-11.21-3.02-14.6-7.77ZM1393.9,142.9c0-10.1-5.3-17.78-14.69-17.78-5.82,0-11.38,3.45-13.82,7.42v20.63c2.43,3.97,7.99,7.6,13.82,7.6,9.39,0,14.69-7.77,14.69-17.87h0Z" style="fill: #171717; stroke-width: 0px;"/>
    <path d="M1435.09,163.78v-4.92c-3.74,4.06-8.43,5.96-14.25,5.96-7.21,0-14.69-4.92-14.69-13.9s7.39-13.81,14.69-13.81c5.82,0,10.6,1.9,14.25,5.96v-8.46c0-6.21-5.04-9.58-11.21-9.58-5.3,0-9.38,1.81-13.21,6.13l-2.52-3.11c4.34-4.66,9.21-6.99,16.16-6.99,8.52,0,15.29,4.06,15.29,13.38v29.35h-4.52,0ZM1435.09,155.58v-9.15c-2.96-3.88-7.65-5.78-12.69-5.78-6.87,0-11.47,4.4-11.47,10.36s4.61,10.27,11.47,10.27c5.04,0,9.73-1.9,12.69-5.7h0Z" style="fill: #171717; stroke-width: 0px;"/>
    <path d="M1448.3,158.17l2.69-3.28c2.69,3.37,7.65,6.13,13.56,6.13,7.04,0,11.21-3.63,11.21-8.46,0-11.39-26.5-4.92-26.5-19.94,0-6.39,5.47-11.57,14.95-11.57,7.21,0,11.99,2.76,15.03,6.13l-2.52,3.19c-2.43-3.28-6.95-5.52-12.51-5.52-6.52,0-10.43,3.28-10.43,7.6,0,10.44,26.42,4.06,26.42,20.11,0,6.73-5.21,12.26-15.73,12.26-6.78,0-11.99-1.99-16.16-6.65h0Z" style="fill: #171717; stroke-width: 0px;"/>
    <path d="M1486.45,158.17l2.69-3.28c2.69,3.37,7.65,6.13,13.56,6.13,7.04,0,11.21-3.63,11.21-8.46,0-11.39-26.5-4.92-26.5-19.94,0-6.39,5.47-11.57,14.95-11.57,7.21,0,11.99,2.76,15.03,6.13l-2.52,3.19c-2.43-3.28-6.95-5.52-12.51-5.52-6.52,0-10.43,3.28-10.43,7.6,0,10.44,26.42,4.06,26.42,20.11,0,6.73-5.21,12.26-15.73,12.26-6.78,0-11.99-1.99-16.16-6.65h0Z" style="fill: #171717; stroke-width: 0px;"/>
    <path d="M1527.04,112.08c0-1.9,1.65-3.37,3.48-3.37s3.48,1.47,3.48,3.37-1.56,3.45-3.48,3.45-3.48-1.55-3.48-3.45ZM1528.25,163.78v-41.69h4.52v41.69h-4.52Z" style="fill: #171717; stroke-width: 0px;"/>
    <path d="M1542.76,142.9c0-12.17,7.82-21.84,20.07-21.84s20.25,9.67,20.25,21.84-7.82,21.92-20.25,21.92-20.07-9.75-20.07-21.92ZM1578.22,142.9c0-9.24-5.47-17.78-15.38-17.78s-15.29,8.55-15.29,17.78,5.56,17.87,15.29,17.87,15.38-8.55,15.38-17.87Z" style="fill: #171717; stroke-width: 0px;"/>
    <path d="M1621.32,163.78v-28.23c0-8.03-4.08-10.44-10.17-10.44-5.39,0-10.95,3.37-13.64,7.16v31.51h-4.52v-41.69h4.52v6.3c3.04-3.63,9.04-7.34,15.12-7.34,8.52,0,13.21,4.14,13.21,13.55v29.18h-4.52,0Z" style="fill: #171717; stroke-width: 0px;"/>
    <path d="M1636.79,160.76c0-1.99,1.83-3.71,3.91-3.71s3.82,1.73,3.82,3.71-1.74,3.8-3.82,3.8-3.91-1.73-3.91-3.8Z" style="fill: #171717; stroke-width: 0px;"/>
  </g>
  <g>
    <path d="M257.65,66.48V11.82h27.57c10.26,0,15.97,6.23,15.97,13.93,0,6.88-4.54,11.47-9.75,12.54,5.97.9,10.84,6.72,10.84,13.44,0,8.44-5.8,14.75-16.31,14.75h-28.33,0ZM267.49,34.44h15.72c5.04,0,7.9-2.95,7.9-7.05s-2.86-7.13-7.9-7.13h-15.72v14.18ZM267.49,58.04h16.14c5.38,0,8.57-2.87,8.57-7.62,0-4.1-2.94-7.54-8.57-7.54h-16.14v15.16Z" style="fill: #171717; stroke-width: 0px;"/>
    <path d="M348.43,66.48l-4.12-10.49h-26.56l-4.12,10.49h-10.76l22.02-54.65h12.27l22.02,54.65h-10.76.01ZM331.03,19.93l-10.51,27.61h21.02l-10.51-27.61h0Z" style="fill: #171717; stroke-width: 0px;"/>
    <path d="M361.97,66.48V11.82h9.83v54.65h-9.83Z" style="fill: #171717; stroke-width: 0px;"/>
    <path d="M419.46,66.48l-29.25-39.82v39.82h-9.83V11.82h10.09l28.67,38.76V11.82h9.83v54.65h-9.51Z" style="fill: #171717; stroke-width: 0px;"/>
    <path d="M437.54,66.48V11.82h38.42v8.44h-28.58v14.18h27.99v8.44h-27.99v15.16h28.58v8.44h-38.42Z" style="fill: #171717; stroke-width: 0px;"/>
    <path d="M484.53,51.4c3.87,4.02,9.92,7.54,17.74,7.54s11.26-3.85,11.26-7.46c0-4.92-5.97-6.39-12.78-8.11-9.16-2.21-19.92-4.83-19.92-16.39,0-9.01,8.15-15.98,20.43-15.98,8.74,0,15.8,2.7,21.01,7.62l-5.63,7.13c-4.37-4.26-10.34-6.23-16.22-6.23s-9.5,2.7-9.5,6.8,5.72,5.65,12.36,7.29c9.25,2.29,20.26,5.08,20.26,16.96,0,9.1-6.56,16.88-21.69,16.88-10.34,0-17.82-3.52-22.78-8.69l5.46-7.38v.02Z" style="fill: #171717; stroke-width: 0px;"/>
    <path d="M547.49,66.48V11.82h9.83v54.65h-9.83Z" style="fill: #171717; stroke-width: 0px;"/>
    <path d="M604.98,66.48l-29.25-39.82v39.82h-9.83V11.82h10.09l28.67,38.76V11.82h9.83v54.65h-9.51Z" style="fill: #171717; stroke-width: 0px;"/>
    <path d="M636.42,66.48V20.26h-16.98v-8.44h43.8v8.44h-16.98v46.21h-9.84Z" style="fill: #171717; stroke-width: 0px;"/>
    <path d="M668.2,66.48V11.82h38.42v8.44h-28.58v14.18h27.99v8.44h-27.99v15.16h28.58v8.44s-38.42,0-38.42,0Z" style="fill: #171717; stroke-width: 0px;"/>
    <path d="M745.36,66.48l-12.44-20.4h-9.75v20.4h-9.83V11.82h24.63c11.1,0,18.33,7.05,18.33,17.13s-6.56,15-13.28,16.06l13.7,21.47h-11.36ZM736.62,20.26h-13.45v17.37h13.45c5.55,0,9.58-3.44,9.58-8.69s-4.04-8.69-9.58-8.69h0Z" style="fill: #171717; stroke-width: 0px;"/>
    <path d="M801.85,66.48l-29.25-39.82v39.82h-9.83V11.82h10.09l28.67,38.76V11.82h9.83v54.65h-9.51Z" style="fill: #171717; stroke-width: 0px;"/>
    <path d="M859.6,66.48l-4.12-10.49h-26.56l-4.12,10.49h-10.76l22.02-54.65h12.27l22.02,54.65h-10.76,0ZM842.2,19.93l-10.51,27.61h21.02l-10.51-27.61Z" style="fill: #171717; stroke-width: 0px;"/>
    <path d="M881.04,66.48V20.26h-16.98v-8.44h43.8v8.44h-16.98v46.21h-9.84Z" style="fill: #171717; stroke-width: 0px;"/>
    <path d="M912.81,66.48V11.82h9.83v54.65h-9.83Z" style="fill: #171717; stroke-width: 0px;"/>
    <path d="M957.36,10.92c16.81,0,28.66,11.96,28.66,28.27s-11.85,28.27-28.66,28.27-28.67-11.96-28.67-28.27,11.85-28.27,28.67-28.27ZM957.36,19.44c-11.35,0-18.58,8.44-18.58,19.75s7.23,19.75,18.58,19.75,18.58-8.52,18.58-19.75-7.31-19.75-18.58-19.75Z" style="fill: #171717; stroke-width: 0px;"/>
    <path d="M1031.25,66.48l-29.25-39.82v39.82h-9.83V11.82h10.09l28.67,38.76V11.82h9.83v54.65h-9.51Z" style="fill: #171717; stroke-width: 0px;"/>
    <path d="M1089,66.48l-4.12-10.49h-26.56l-4.12,10.49h-10.76l22.02-54.65h12.27l22.02,54.65h-10.76.01ZM1071.6,19.93l-10.51,27.61h21.02l-10.51-27.61Z" style="fill: #171717; stroke-width: 0px;"/>
    <path d="M1102.53,66.48V11.82h9.83v46.21h24.71v8.44h-34.55.01Z" style="fill: #171717; stroke-width: 0px;"/>
    <path d="M1199.88,66.48v-23.84h-29.17v23.84h-9.83V11.82h9.83v22.37h29.17V11.82h9.83v54.65h-9.83Z" style="fill: #171717; stroke-width: 0px;"/>
    <path d="M1218.29,66.48V11.82h38.42v8.44h-28.58v14.18h27.99v8.44h-27.99v15.16h28.58v8.44s-38.42,0-38.42,0Z" style="fill: #171717; stroke-width: 0px;"/>
    <path d="M1303.1,66.48l-4.12-10.49h-26.56l-4.12,10.49h-10.76l22.02-54.65h12.27l22.02,54.65h-10.76.01ZM1285.7,19.93l-10.51,27.61h21.02l-10.51-27.61Z" style="fill: #171717; stroke-width: 0px;"/>
    <path d="M1316.63,66.48V11.82h9.83v46.21h24.71v8.44h-34.55.01Z" style="fill: #171717; stroke-width: 0px;"/>
    <path d="M1361.69,66.48V20.26h-16.98v-8.44h43.8v8.44h-16.98v46.21h-9.84Z" style="fill: #171717; stroke-width: 0px;"/>
    <path d="M1432.47,66.48v-23.84h-29.17v23.84h-9.83V11.82h9.83v22.37h29.17V11.82h9.83v54.65h-9.83Z" style="fill: #171717; stroke-width: 0px;"/>
    <path d="M1448.36,39.19c0-16.8,12.86-28.27,29-28.27,11.77,0,18.75,5.74,22.95,12.29l-8.41,4.18c-2.69-4.51-8.07-7.95-14.54-7.95-10.68,0-18.91,8.28-18.91,19.75s8.24,19.75,18.91,19.75c6.47,0,11.85-3.36,14.54-7.95l8.41,4.18c-4.29,6.56-11.18,12.29-22.95,12.29-16.14,0-29-11.47-29-28.27Z" style="fill: #171717; stroke-width: 0px;"/>
    <path d="M1544.1,66.48l-4.12-10.49h-26.56l-4.12,10.49h-10.76l22.02-54.65h12.27l22.02,54.65h-10.76.01ZM1526.7,19.93l-10.51,27.61h21.02l-10.51-27.61Z" style="fill: #171717; stroke-width: 0px;"/>
    <path d="M1589.66,66.48l-12.44-20.4h-9.75v20.4h-9.83V11.82h24.63c11.1,0,18.33,7.05,18.33,17.13s-6.56,15-13.28,16.06l13.7,21.47h-11.36ZM1580.92,20.26h-13.45v17.37h13.45c5.55,0,9.58-3.44,9.58-8.69s-4.04-8.69-9.58-8.69h0Z" style="fill: #171717; stroke-width: 0px;"/>
    <path d="M1607.06,66.48V11.82h38.42v8.44h-28.58v14.18h27.99v8.44h-27.99v15.16h28.58v8.44s-38.42,0-38.42,0Z" style="fill: #171717; stroke-width: 0px;"/>
  </g>
  <g>
    <path d="M193.45,86.03c9.83-9.06,16-22.04,16-36.46,0-27.38-22.2-49.57-49.57-49.57h-56.19s-.05.02-.05.05v27.39s.02.05.05.05h56.62c11.35,0,20.54,9.2,20.54,20.54v3.06c0,11.35-9.2,20.54-20.54,20.54h-.68v.15c-.31,0-.62-.02-.93-.02-.21,0-.4.05-.6.06h-7.97v27.31h7.75c.41.06.82.13,1.25.13,11.31,0,20.49,9.17,20.49,20.49v3.17c0,11.3-9.15,20.46-20.44,20.49h-57.45v27.51h60.07v-.11c25.91-1.6,46.43-23.1,46.43-49.41v-.11c0-13.8-5.65-26.28-14.75-35.26h-.03Z" style="fill: #139b97; stroke-width: 0px;"/>
    <path d="M78.81,91.24c-.3-.13-.6-.25-.91-.38l-9.51-3.78c-.51-.21-.76-.81-.57-1.34.1-.29.32-.51.59-.61l9.61-3.52c.12-.04.23-.09.35-.13,6.27-2.37,10.31-8.52,10.31-15.23V0h-32.77v72.46H0v26.99h55.92v71.2h32.77v-64.36c0-6.54-3.87-12.47-9.88-15.05Z" style="fill: #cc2262; stroke-width: 0px;"/>
    <path d="M114.4,118.29c.08.23.25.42.46.51.41.17.87-.05,1.03-.49l2.9-8.15c3.22-9.05,10.07-16.12,18.69-19.27l7.77-2.84c.22-.08.4-.26.48-.49.16-.43-.05-.92-.46-1.09l-7.69-3.06c-8.53-3.4-15.18-10.65-18.15-19.78l-2.67-8.23c-.08-.24-.25-.43-.47-.52-.41-.16-.86.06-1.02.5l-2.9,8.15c-3.22,9.05-10.07,16.12-18.69,19.27l-7.77,2.84c-.22.08-.4.26-.48.49-.16.43.05.92.46,1.09l7.69,3.06c8.53,3.4,15.18,10.65,18.15,19.78l2.67,8.23h0Z" style="fill: #cc2262; stroke-width: 0px;"/>
  </g>
</svg>