<svg width="40" height="40" viewBox="0 0 40 40" fill="none" xmlns="http://www.w3.org/2000/svg">
<rect x="0.2" y="0.2" width="39.6" height="39.6" rx="14.8" fill="white"/>
<rect x="0.2" y="0.2" width="39.6" height="39.6" rx="14.8" stroke="#D6D6D6" stroke-width="0.4"/>
<path d="M16.8003 28.3327C13.317 28.3327 12.617 26.2243 13.7503 23.6577L17.292 15.616H17.042C16.5003 15.616 16.0003 15.3993 15.642 15.041C15.2753 14.6827 15.0586 14.1827 15.0586 13.641C15.0586 12.5577 15.942 11.666 17.0336 11.666H22.9586C23.5086 11.666 24.0003 11.891 24.3586 12.2493C24.8253 12.716 25.0586 13.3993 24.8836 14.1243C24.6586 15.0243 23.792 15.616 22.867 15.616H22.7336L26.2503 23.666C27.3753 26.2327 26.642 28.3327 23.192 28.3327H16.8003Z" stroke="black" stroke-width="1.2" stroke-linecap="round" stroke-linejoin="round"/>
<path d="M14.9492 20.9341C14.9492 20.9341 17.4992 20.8341 19.9992 21.6674C22.4992 22.5008 24.8576 20.9258 24.8576 20.9258" stroke="black" stroke-width="1.2" stroke-linecap="round" stroke-linejoin="round"/>
</svg>
