<svg width="24" height="24" viewBox="0 0 24 24" fill="none" xmlns="http://www.w3.org/2000/svg">
<rect width="24" height="24" rx="12" fill="url(#paint0_linear_714_11261)"/>
<path d="M16.7718 7.2002V9.76022C16.2735 9.30279 15.6095 9.02309 14.8813 9.02309C13.3384 9.02309 12.083 10.2785 12.083 11.8214C12.083 13.3643 13.3384 14.6197 14.8813 14.6197C15.6095 14.6197 16.2735 14.34 16.7718 13.8826V14.6147H17.6796V7.2002H16.7718ZM14.8813 13.7119C13.8388 13.7119 12.9908 12.8639 12.9908 11.8214C12.9908 10.7789 13.8388 9.93087 14.8813 9.93087C15.9238 9.93087 16.7718 10.7789 16.7718 11.8214C16.7718 12.8639 15.9238 13.7119 14.8813 13.7119Z" fill="white"/>
<path d="M10.8484 9.06362V9.82512C10.3669 9.31055 9.66255 9.02246 8.85596 9.02246C7.2011 9.02272 6 10.1806 6 11.7759C6 12.5595 6.29228 13.2701 6.82258 13.7768C7.34449 14.2754 8.06667 14.5499 8.85596 14.5499C9.64524 14.5499 10.3391 14.2699 10.8175 13.7697V14.046C10.8175 15.3032 10.2474 15.8639 8.96894 15.8639C8.18673 15.8639 7.42785 15.6013 6.93897 15.1614L6.81498 15.05L6.2852 15.8445L6.37354 15.9282C6.95076 16.4739 7.92852 16.7998 8.98912 16.7998C9.93988 16.7998 10.634 16.5725 11.1111 16.1051C11.5981 15.6278 11.8349 14.9242 11.8349 13.954V9.06362H10.8479H10.8484ZM8.92778 13.6143C7.80899 13.6143 7.02783 12.8583 7.02783 11.7759C7.02783 10.6936 7.80899 9.9478 8.92778 9.9478C10.0466 9.9478 10.838 10.6996 10.838 11.7759C10.838 12.8523 10.0523 13.6143 8.92778 13.6143Z" fill="white"/>
<defs>
<linearGradient id="paint0_linear_714_11261" x1="0" y1="12" x2="24" y2="12" gradientUnits="userSpaceOnUse">
<stop stop-color="#DF6926"/>
<stop offset="1" stop-color="#E3352F"/>
</linearGradient>
</defs>
</svg>
