<svg width="137" height="30" viewBox="0 0 137 30" fill="none" xmlns="http://www.w3.org/2000/svg">
<path d="M111.052 5.38931C106.16 5.38931 102.608 8.92706 102.608 13.8016C102.608 18.6761 106.16 22.2443 111.052 22.2443C115.944 22.2443 119.465 18.6933 119.465 13.8016C119.465 8.9099 115.927 5.38931 111.052 5.38931ZM111.052 19.7088C107.734 19.7088 105.417 17.2793 105.417 13.8016C105.417 10.3239 107.735 7.89444 111.052 7.89444C114.369 7.89444 116.656 10.3239 116.656 13.8016C116.656 17.2793 114.351 19.7088 111.052 19.7088Z" fill="white"/>
<path d="M134.887 17.2512L134.711 17.5094C133.748 18.9281 132.191 19.7088 130.327 19.7088C126.956 19.7088 124.601 17.2793 124.601 13.8016C124.601 10.3239 126.956 7.89444 130.327 7.89444C132.177 7.89444 133.735 8.68606 134.711 10.1242L134.887 10.3824L136.998 8.94812L136.844 8.69464C135.547 6.5631 133.232 5.38931 130.327 5.38931C127.933 5.38931 125.761 6.22461 124.211 7.74235C122.651 9.26945 121.792 11.4213 121.792 13.8016C121.792 16.1819 122.651 18.3408 124.21 19.8757C125.763 21.4035 127.935 22.2443 130.327 22.2443C133.213 22.2443 135.527 21.0713 136.843 18.9413L137 18.6871L134.887 17.2512Z" fill="white"/>
<path d="M46.7683 5.34872C42.1773 5.34872 38.4419 9.08378 38.4419 13.6744C38.4419 18.2651 42.1773 22.0001 46.7683 22.0001C51.3593 22.0001 55.0947 18.2651 55.0947 13.6744C55.0947 9.08378 51.3593 5.34872 46.7683 5.34872ZM46.7683 19.2993C43.6663 19.2993 41.143 16.7762 41.143 13.6744C41.143 10.5727 43.6663 8.0496 46.7683 8.0496C49.8703 8.0496 52.3936 10.5727 52.3936 13.6744C52.3936 16.7762 49.8703 19.2993 46.7683 19.2993Z" fill="white"/>
<path d="M71.406 0V7.61676C69.9233 6.25579 67.9475 5.42361 65.7807 5.42361C61.1897 5.42361 57.4543 9.15868 57.4543 13.7493C57.4543 18.34 61.1897 22.075 65.7807 22.075C67.9475 22.075 69.9233 21.2429 71.406 19.8819V22.0602H74.1071V0H71.406ZM65.7807 19.3742C62.6787 19.3742 60.1554 16.8511 60.1554 13.7493C60.1554 10.6476 62.6787 8.12449 65.7807 8.12449C68.8827 8.12449 71.406 10.6476 71.406 13.7493C71.406 16.8511 68.8827 19.3742 65.7807 19.3742Z" fill="white"/>
<path d="M97.773 0V7.61676C96.2902 6.25579 94.3145 5.42361 92.1477 5.42361C87.5566 5.42361 83.8212 9.15868 83.8212 13.7493C83.8212 18.34 87.5566 22.075 92.1477 22.075C94.3145 22.075 96.2902 21.2429 97.773 19.8819V22.0602H100.474V0H97.773ZM92.1477 19.3742C89.0456 19.3742 86.5224 16.8511 86.5224 13.7493C86.5224 10.6476 89.0456 8.12449 92.1477 8.12449C95.2497 8.12449 97.773 10.6476 97.773 13.7493C97.773 16.8511 95.2497 19.3742 92.1477 19.3742Z" fill="white"/>
<path d="M38.3917 24.2434C37.8582 23.394 37.0252 22.8028 36.0471 22.5798C35.069 22.3559 34.062 22.5275 33.2126 23.061C32.7446 23.355 32.3444 23.7512 32.048 24.2129C30.5115 23.8136 29.4889 22.9066 28.925 21.4426C28.9242 21.4403 28.9234 21.438 28.9226 21.4356C29.1098 21.4177 29.2837 21.3966 29.407 21.3717C30.4896 21.1658 31.1378 20.8093 31.1378 20.8093V20.807C34.1259 19.5123 36.1563 16.533 36.1563 13.1661C36.1563 10.1711 34.5261 7.40319 31.9505 5.93225C31.8289 5.86283 31.7048 5.79732 31.5793 5.73415C31.4755 5.68735 31.2376 5.59454 30.9678 5.59454H29.6184C29.2939 5.59454 29.0295 5.85893 29.0295 6.18338V8.05287C29.0295 8.37732 29.2939 8.64171 29.6184 8.64171H30.8882C31.1565 8.66433 31.4264 8.84683 31.6198 9.0114C32.7781 10.0705 33.4552 11.582 33.4552 13.1653C33.4552 15.8631 31.545 18.1225 29.0069 18.6653V18.6692C28.836 18.7121 28.4156 18.8003 27.861 18.8034C27.3057 18.8003 26.8845 18.7121 26.7137 18.6692V18.6653C24.1748 18.1225 22.2654 15.8631 22.2654 13.1653C22.2654 11.582 22.9424 10.0705 24.1007 9.0114C24.2941 8.84683 24.564 8.66433 24.8323 8.64171H26.1022C26.4266 8.64171 26.6911 8.37732 26.6911 8.05287V6.18338C26.6911 5.85893 26.4266 5.59454 26.1022 5.59454H24.7528C24.4837 5.59454 24.245 5.68735 24.1413 5.73415C24.0157 5.79732 23.8917 5.86283 23.77 5.93225C21.1937 7.40319 19.5643 10.1711 19.5643 13.1661C19.5643 16.5322 21.5946 19.5115 24.5827 20.807C24.5827 20.807 25.1615 21.0886 26.0476 21.2937H26.0164C26.2628 22.3224 26.7184 23.4814 27.5553 24.5015C28.542 25.7026 29.8734 26.5122 31.5145 26.9084C31.7821 28.3762 32.9154 29.571 34.374 29.9041C34.6517 29.9672 34.9356 30 35.2172 30C35.9191 30 36.6079 29.8003 37.2085 29.4229C38.0579 28.8894 38.6491 28.0564 38.8722 27.0784C39.0953 26.1004 38.9245 25.0935 38.3909 24.2441L38.3917 24.2434ZM36.5236 26.541C36.4433 26.892 36.2311 27.1907 35.9269 27.3818C35.6227 27.5729 35.2616 27.6345 34.9106 27.5542C34.186 27.3888 33.7313 26.665 33.8966 25.9405C33.977 25.5895 34.1891 25.2908 34.4933 25.0997C34.7086 24.964 34.9559 24.893 35.207 24.893C35.3084 24.893 35.4098 24.9047 35.5097 24.9274C35.8606 25.0077 36.1594 25.2198 36.3505 25.524C36.5416 25.829 36.604 26.1901 36.5236 26.541Z" fill="url(#paint0_linear_1263_18163)"/>
<path d="M14.4267 5.54529V7.81098C12.9939 6.27998 10.8981 5.42284 8.49802 5.42284C3.57393 5.42362 0 8.86856 0 13.6152C0 15.9464 0.869692 18.0608 2.44762 19.5684C4.00058 21.0518 6.14946 21.8684 8.49802 21.8684C10.8466 21.8684 12.9112 21.0354 14.3347 19.5473V20.3694C14.3347 24.1099 12.6382 25.7781 8.8342 25.7781C6.5067 25.7781 4.24862 24.9967 2.79393 23.6879L2.425 23.3565L0.848632 25.7204L1.11149 25.9692C2.82903 27.593 5.73841 28.5625 8.89425 28.5625C11.7233 28.5625 13.7887 27.8863 15.2083 26.4957C16.6575 25.0754 17.3619 22.9821 17.3619 20.0956V5.54529H14.4252H14.4267ZM8.71174 19.0848C5.38273 19.0848 3.05835 16.8355 3.05835 13.6152C3.05835 10.3949 5.38273 8.17599 8.71174 8.17599C12.0407 8.17599 14.3955 10.4128 14.3955 13.6152C14.3955 16.8176 12.0579 19.0848 8.71174 19.0848Z" fill="white"/>
<defs>
<linearGradient id="paint0_linear_1263_18163" x1="-0.00550723" y1="15" x2="137.003" y2="15" gradientUnits="userSpaceOnUse">
<stop stop-color="#DF6926"/>
<stop offset="1" stop-color="#E3352F"/>
</linearGradient>
</defs>
</svg>
